# xmcd
#
# Track frame offsets: 
#        150
#        20350
#        37371
#        59894
#        80813
#        97808
#        117161
#        144753
#        166229
#        193969
#        223051
#        239748
#        264013
#        285334
#
# Disc length: 4133 seconds
#
# Revision: 1
# Processed by: cddbd v1.5.1PL2 Copyright (c) Steve Scherf et al.
# Submitted via: ExactAudioCopy v0.90a11
#
DISCID=cd10230e
DTITLE=Johnny 'Guitar' Watson - Superman Lover - The Ultimate Collecti
DTITLE=on [DISC 2]
DYEAR=2004
DGENRE=Blues
TTITLE0=Barn Door
TTITLE1=Love That Will Not Die
TTITLE2=Miss Frisco (Queen Of The Disco)
TTITLE3=Tu Jours Amour
TTITLE4=Gangster Of Love
TTITLE5=Guitar Disco
TTITLE6=You Can Stay But The Noise Must Go
TTITLE7=Baby Face (She Said Do Do Do Do)
TTITLE8=What The Hell Is This
TTITLE9=Proud Of You
TTITLE10=I Don't Want To Be President
TTITLE11=Booty Ooty
TTITLE12=Love Jones
TTITLE13=Going Up In Smoke
EXTD=
EXTT0=
EXTT1=
EXTT2=
EXTT3=
EXTT4=
EXTT5=
EXTT6=
EXTT7=
EXTT8=
EXTT9=
EXTT10=
EXTT11=
EXTT12=
EXTT13=
PLAYORDER=
